<svg width="179" height="64" viewBox="0 0 179 64" fill="none" xmlns="http://www.w3.org/2000/svg">
<circle cx="32" cy="32" r="32" fill="#5330C1"/>
<path d="M48.0607 33.0607C48.6464 32.4749 48.6464 31.5251 48.0607 30.9393L38.5147 21.3934C37.9289 20.8076 36.9792 20.8076 36.3934 21.3934C35.8076 21.9792 35.8076 22.9289 36.3934 23.5147L44.8787 32L36.3934 40.4853C35.8076 41.0711 35.8076 42.0208 36.3934 42.6066C36.9792 43.1924 37.9289 43.1924 38.5147 42.6066L48.0607 33.0607ZM13 33.5H47V30.5H13V33.5Z" fill="#FFFBFB"/>
<path d="M85.2641 39L79.1441 25H81.9641L87.4241 37.66H85.8041L91.3241 25H93.9241L87.8241 39H85.2641ZM97.821 30.82H104.781V32.96H97.821V30.82ZM98.021 36.82H105.921V39H95.421V25H105.641V27.18H98.021V36.82ZM108.819 39V25H114.579C115.819 25 116.879 25.2 117.759 25.6C118.653 26 119.339 26.5733 119.819 27.32C120.299 28.0667 120.539 28.9533 120.539 29.98C120.539 31.0067 120.299 31.8933 119.819 32.64C119.339 33.3733 118.653 33.94 117.759 34.34C116.879 34.7267 115.819 34.92 114.579 34.92H110.259L111.419 33.74V39H108.819ZM117.979 39L114.439 33.92H117.219L120.779 39H117.979ZM111.419 34.02L110.259 32.78H114.459C115.606 32.78 116.466 32.5333 117.039 32.04C117.626 31.5467 117.919 30.86 117.919 29.98C117.919 29.0867 117.626 28.4 117.039 27.92C116.466 27.44 115.606 27.2 114.459 27.2H110.259L111.419 25.92V34.02ZM128.976 39V25H131.116L137.236 35.22H136.116L142.136 25H144.276L144.296 39H141.836L141.816 28.86H142.336L137.216 37.4H136.056L130.856 28.86H131.456V39H128.976ZM146.097 39L152.397 25H154.957L161.277 39H158.557L153.137 26.38H154.177L148.777 39H146.097ZM148.997 35.76L149.697 33.72H157.257L157.957 35.76H148.997ZM167.398 39.2C166.304 39.2 165.258 39.0467 164.258 38.74C163.258 38.42 162.464 38.0133 161.878 37.52L162.778 35.5C163.338 35.94 164.031 36.3067 164.858 36.6C165.684 36.8933 166.531 37.04 167.398 37.04C168.131 37.04 168.724 36.96 169.178 36.8C169.631 36.64 169.964 36.4267 170.178 36.16C170.391 35.88 170.498 35.5667 170.498 35.22C170.498 34.7933 170.344 34.4533 170.038 34.2C169.731 33.9333 169.331 33.7267 168.838 33.58C168.358 33.42 167.818 33.2733 167.218 33.14C166.631 33.0067 166.038 32.8533 165.438 32.68C164.851 32.4933 164.311 32.26 163.818 31.98C163.338 31.6867 162.944 31.3 162.638 30.82C162.331 30.34 162.178 29.7267 162.178 28.98C162.178 28.22 162.378 27.5267 162.778 26.9C163.191 26.26 163.811 25.7533 164.638 25.38C165.478 24.9933 166.538 24.8 167.818 24.8C168.658 24.8 169.491 24.9067 170.318 25.12C171.144 25.3333 171.864 25.64 172.478 26.04L171.658 28.06C171.031 27.6867 170.384 27.4133 169.718 27.24C169.051 27.0533 168.411 26.96 167.798 26.96C167.078 26.96 166.491 27.0467 166.038 27.22C165.598 27.3933 165.271 27.62 165.058 27.9C164.858 28.18 164.758 28.5 164.758 28.86C164.758 29.2867 164.904 29.6333 165.198 29.9C165.504 30.1533 165.898 30.3533 166.378 30.5C166.871 30.6467 167.418 30.7933 168.018 30.94C168.618 31.0733 169.211 31.2267 169.798 31.4C170.398 31.5733 170.938 31.8 171.418 32.08C171.911 32.36 172.304 32.74 172.598 33.22C172.904 33.7 173.058 34.3067 173.058 35.04C173.058 35.7867 172.851 36.48 172.438 37.12C172.038 37.7467 171.418 38.2533 170.578 38.64C169.738 39.0133 168.678 39.2 167.398 39.2Z" fill="black"/>
</svg>
