<svg width="179" height="64" viewBox="0 0 179 64" fill="none" xmlns="http://www.w3.org/2000/svg">
<circle cx="32" cy="32" r="32" fill="#5330C1"/>
<path d="M48.0607 33.0607C48.6464 32.4749 48.6464 31.5251 48.0607 30.9393L38.5147 21.3934C37.9289 20.8076 36.9792 20.8076 36.3934 21.3934C35.8076 21.9792 35.8076 22.9289 36.3934 23.5147L44.8787 32L36.3934 40.4853C35.8076 41.0711 35.8076 42.0208 36.3934 42.6066C36.9792 43.1924 37.9289 43.1924 38.5147 42.6066L48.0607 33.0607ZM13 33.5H47V30.5H13V33.5Z" fill="#FFFBFB"/>
<path d="M82.7433 37.108C81.7713 37.108 80.9013 36.898 80.1333 36.478C79.3773 36.058 78.7833 35.482 78.3513 34.75C77.9193 34.018 77.7033 33.178 77.7033 32.23C77.7033 31.282 77.9193 30.442 78.3513 29.71C78.7833 28.978 79.3773 28.408 80.1333 28C80.9013 27.58 81.7713 27.37 82.7433 27.37C83.6073 27.37 84.3753 27.544 85.0473 27.892C85.7313 28.228 86.2593 28.732 86.6313 29.404L85.3173 30.25C85.0053 29.782 84.6213 29.44 84.1653 29.224C83.7213 28.996 83.2413 28.882 82.7253 28.882C82.1013 28.882 81.5433 29.02 81.0513 29.296C80.5593 29.572 80.1693 29.962 79.8813 30.466C79.5933 30.958 79.4493 31.546 79.4493 32.23C79.4493 32.914 79.5933 33.508 79.8813 34.012C80.1693 34.516 80.5593 34.906 81.0513 35.182C81.5433 35.458 82.1013 35.596 82.7253 35.596C83.2413 35.596 83.7213 35.488 84.1653 35.272C84.6213 35.044 85.0053 34.696 85.3173 34.228L86.6313 35.056C86.2593 35.716 85.7313 36.226 85.0473 36.586C84.3753 36.934 83.6073 37.108 82.7433 37.108ZM92.8138 37.108C91.8538 37.108 91.0018 36.898 90.2578 36.478C89.5138 36.058 88.9258 35.482 88.4938 34.75C88.0618 34.006 87.8458 33.166 87.8458 32.23C87.8458 31.282 88.0618 30.442 88.4938 29.71C88.9258 28.978 89.5138 28.408 90.2578 28C91.0018 27.58 91.8538 27.37 92.8138 27.37C93.7618 27.37 94.6078 27.58 95.3518 28C96.1078 28.408 96.6958 28.978 97.1158 29.71C97.5478 30.43 97.7638 31.27 97.7638 32.23C97.7638 33.178 97.5478 34.018 97.1158 34.75C96.6958 35.482 96.1078 36.058 95.3518 36.478C94.6078 36.898 93.7618 37.108 92.8138 37.108ZM92.8138 35.596C93.4258 35.596 93.9718 35.458 94.4518 35.182C94.9438 34.906 95.3278 34.516 95.6038 34.012C95.8798 33.496 96.0178 32.902 96.0178 32.23C96.0178 31.546 95.8798 30.958 95.6038 30.466C95.3278 29.962 94.9438 29.572 94.4518 29.296C93.9718 29.02 93.4258 28.882 92.8138 28.882C92.2018 28.882 91.6558 29.02 91.1758 29.296C90.6958 29.572 90.3118 29.962 90.0238 30.466C89.7358 30.958 89.5918 31.546 89.5918 32.23C89.5918 32.902 89.7358 33.496 90.0238 34.012C90.3118 34.516 90.6958 34.906 91.1758 35.182C91.6558 35.458 92.2018 35.596 92.8138 35.596ZM105.248 27.37C106.028 27.37 106.712 27.52 107.3 27.82C107.9 28.12 108.368 28.576 108.704 29.188C109.04 29.8 109.208 30.574 109.208 31.51V37H107.48V31.708C107.48 30.784 107.252 30.088 106.796 29.62C106.352 29.152 105.722 28.918 104.906 28.918C104.294 28.918 103.76 29.038 103.304 29.278C102.848 29.518 102.494 29.872 102.242 30.34C102.002 30.808 101.882 31.39 101.882 32.086V37H100.154V27.46H101.81V30.034L101.54 29.35C101.852 28.726 102.332 28.24 102.98 27.892C103.628 27.544 104.384 27.37 105.248 27.37ZM116.492 37.108C115.532 37.108 114.68 36.898 113.936 36.478C113.192 36.058 112.604 35.482 112.172 34.75C111.74 34.006 111.524 33.166 111.524 32.23C111.524 31.282 111.74 30.442 112.172 29.71C112.604 28.978 113.192 28.408 113.936 28C114.68 27.58 115.532 27.37 116.492 27.37C117.44 27.37 118.286 27.58 119.03 28C119.786 28.408 120.374 28.978 120.794 29.71C121.226 30.43 121.442 31.27 121.442 32.23C121.442 33.178 121.226 34.018 120.794 34.75C120.374 35.482 119.786 36.058 119.03 36.478C118.286 36.898 117.44 37.108 116.492 37.108ZM116.492 35.596C117.104 35.596 117.65 35.458 118.13 35.182C118.622 34.906 119.006 34.516 119.282 34.012C119.558 33.496 119.696 32.902 119.696 32.23C119.696 31.546 119.558 30.958 119.282 30.466C119.006 29.962 118.622 29.572 118.13 29.296C117.65 29.02 117.104 28.882 116.492 28.882C115.88 28.882 115.334 29.02 114.854 29.296C114.374 29.572 113.99 29.962 113.702 30.466C113.414 30.958 113.27 31.546 113.27 32.23C113.27 32.902 113.414 33.496 113.702 34.012C113.99 34.516 114.374 34.906 114.854 35.182C115.334 35.458 115.88 35.596 116.492 35.596ZM127.989 37.108C127.017 37.108 126.147 36.898 125.379 36.478C124.623 36.058 124.029 35.482 123.597 34.75C123.165 34.018 122.949 33.178 122.949 32.23C122.949 31.282 123.165 30.442 123.597 29.71C124.029 28.978 124.623 28.408 125.379 28C126.147 27.58 127.017 27.37 127.989 27.37C128.853 27.37 129.621 27.544 130.293 27.892C130.977 28.228 131.505 28.732 131.877 29.404L130.563 30.25C130.251 29.782 129.867 29.44 129.411 29.224C128.967 28.996 128.487 28.882 127.971 28.882C127.347 28.882 126.789 29.02 126.297 29.296C125.805 29.572 125.415 29.962 125.127 30.466C124.839 30.958 124.695 31.546 124.695 32.23C124.695 32.914 124.839 33.508 125.127 34.012C125.415 34.516 125.805 34.906 126.297 35.182C126.789 35.458 127.347 35.596 127.971 35.596C128.487 35.596 128.967 35.488 129.411 35.272C129.867 35.044 130.251 34.696 130.563 34.228L131.877 35.056C131.505 35.716 130.977 36.226 130.293 36.586C129.621 36.934 128.853 37.108 127.989 37.108ZM138.222 37.108C137.202 37.108 136.302 36.898 135.522 36.478C134.754 36.058 134.154 35.482 133.722 34.75C133.302 34.018 133.092 33.178 133.092 32.23C133.092 31.282 133.296 30.442 133.704 29.71C134.124 28.978 134.694 28.408 135.414 28C136.146 27.58 136.968 27.37 137.88 27.37C138.804 27.37 139.62 27.574 140.328 27.982C141.036 28.39 141.588 28.966 141.984 29.71C142.392 30.442 142.596 31.3 142.596 32.284C142.596 32.356 142.59 32.44 142.578 32.536C142.578 32.632 142.572 32.722 142.56 32.806H134.442V31.564H141.66L140.958 31.996C140.97 31.384 140.844 30.838 140.58 30.358C140.316 29.878 139.95 29.506 139.482 29.242C139.026 28.966 138.492 28.828 137.88 28.828C137.28 28.828 136.746 28.966 136.278 29.242C135.81 29.506 135.444 29.884 135.18 30.376C134.916 30.856 134.784 31.408 134.784 32.032V32.32C134.784 32.956 134.928 33.526 135.216 34.03C135.516 34.522 135.93 34.906 136.458 35.182C136.986 35.458 137.592 35.596 138.276 35.596C138.84 35.596 139.35 35.5 139.806 35.308C140.274 35.116 140.682 34.828 141.03 34.444L141.984 35.56C141.552 36.064 141.012 36.448 140.364 36.712C139.728 36.976 139.014 37.108 138.222 37.108ZM150.089 27.37C150.869 27.37 151.553 27.52 152.141 27.82C152.741 28.12 153.209 28.576 153.545 29.188C153.881 29.8 154.049 30.574 154.049 31.51V37H152.321V31.708C152.321 30.784 152.093 30.088 151.637 29.62C151.193 29.152 150.563 28.918 149.747 28.918C149.135 28.918 148.601 29.038 148.145 29.278C147.689 29.518 147.335 29.872 147.083 30.34C146.843 30.808 146.723 31.39 146.723 32.086V37H144.995V27.46H146.651V30.034L146.381 29.35C146.693 28.726 147.173 28.24 147.821 27.892C148.469 27.544 149.225 27.37 150.089 27.37ZM161.333 37.108C160.373 37.108 159.521 36.898 158.777 36.478C158.033 36.058 157.445 35.482 157.013 34.75C156.581 34.006 156.365 33.166 156.365 32.23C156.365 31.282 156.581 30.442 157.013 29.71C157.445 28.978 158.033 28.408 158.777 28C159.521 27.58 160.373 27.37 161.333 27.37C162.281 27.37 163.127 27.58 163.871 28C164.627 28.408 165.215 28.978 165.635 29.71C166.067 30.43 166.283 31.27 166.283 32.23C166.283 33.178 166.067 34.018 165.635 34.75C165.215 35.482 164.627 36.058 163.871 36.478C163.127 36.898 162.281 37.108 161.333 37.108ZM161.333 35.596C161.945 35.596 162.491 35.458 162.971 35.182C163.463 34.906 163.847 34.516 164.123 34.012C164.399 33.496 164.537 32.902 164.537 32.23C164.537 31.546 164.399 30.958 164.123 30.466C163.847 29.962 163.463 29.572 162.971 29.296C162.491 29.02 161.945 28.882 161.333 28.882C160.721 28.882 160.175 29.02 159.695 29.296C159.215 29.572 158.831 29.962 158.543 30.466C158.255 30.958 158.111 31.546 158.111 32.23C158.111 32.902 158.255 33.496 158.543 34.012C158.831 34.516 159.215 34.906 159.695 35.182C160.175 35.458 160.721 35.596 161.333 35.596ZM171.409 37.108C170.617 37.108 169.861 37 169.141 36.784C168.433 36.568 167.875 36.304 167.467 35.992L168.187 34.624C168.595 34.9 169.099 35.134 169.699 35.326C170.299 35.518 170.911 35.614 171.535 35.614C172.339 35.614 172.915 35.5 173.263 35.272C173.623 35.044 173.803 34.726 173.803 34.318C173.803 34.018 173.695 33.784 173.479 33.616C173.263 33.448 172.975 33.322 172.615 33.238C172.267 33.154 171.877 33.082 171.445 33.022C171.013 32.95 170.581 32.866 170.149 32.77C169.717 32.662 169.321 32.518 168.961 32.338C168.601 32.146 168.313 31.888 168.097 31.564C167.881 31.228 167.773 30.784 167.773 30.232C167.773 29.656 167.935 29.152 168.259 28.72C168.583 28.288 169.039 27.958 169.627 27.73C170.227 27.49 170.935 27.37 171.751 27.37C172.375 27.37 173.005 27.448 173.641 27.604C174.289 27.748 174.817 27.958 175.225 28.234L174.487 29.602C174.055 29.314 173.605 29.116 173.137 29.008C172.669 28.9 172.201 28.846 171.733 28.846C170.977 28.846 170.413 28.972 170.041 29.224C169.669 29.464 169.483 29.776 169.483 30.16C169.483 30.484 169.591 30.736 169.807 30.916C170.035 31.084 170.323 31.216 170.671 31.312C171.031 31.408 171.427 31.492 171.859 31.564C172.291 31.624 172.723 31.708 173.155 31.816C173.587 31.912 173.977 32.05 174.325 32.23C174.685 32.41 174.973 32.662 175.189 32.986C175.417 33.31 175.531 33.742 175.531 34.282C175.531 34.858 175.363 35.356 175.027 35.776C174.691 36.196 174.217 36.526 173.605 36.766C172.993 36.994 172.261 37.108 171.409 37.108Z" fill="black"/>
</svg>
