<svg width="179" height="64" viewBox="0 0 179 64" fill="none" xmlns="http://www.w3.org/2000/svg">
<circle cx="32" cy="32" r="32" fill="#5330C1"/>
<path d="M48.0607 33.0607C48.6464 32.4749 48.6464 31.5251 48.0607 30.9393L38.5147 21.3934C37.9289 20.8076 36.9792 20.8076 36.3934 21.3934C35.8076 21.9792 35.8076 22.9289 36.3934 23.5147L44.8787 32L36.3934 40.4853C35.8076 41.0711 35.8076 42.0208 36.3934 42.6066C36.9792 43.1924 37.9289 43.1924 38.5147 42.6066L48.0607 33.0607ZM13 33.5H47V30.5H13V33.5Z" fill="#FFFBFB"/>
<path d="M89.3877 37L83.8797 24.4H86.4177L91.3317 35.794H89.8737L94.8417 24.4H97.1817L91.6917 37H89.3877ZM100.689 29.638H106.953V31.564H100.689V29.638ZM100.869 35.038H107.979V37H98.5289V24.4H107.727V26.362H100.869V35.038ZM110.588 37V24.4H115.772C116.888 24.4 117.842 24.58 118.634 24.94C119.438 25.3 120.056 25.816 120.488 26.488C120.92 27.16 121.136 27.958 121.136 28.882C121.136 29.806 120.92 30.604 120.488 31.276C120.056 31.936 119.438 32.446 118.634 32.806C117.842 33.154 116.888 33.328 115.772 33.328H111.884L112.928 32.266V37H110.588ZM118.832 37L115.646 32.428H118.148L121.352 37H118.832ZM112.928 32.518L111.884 31.402H115.664C116.696 31.402 117.47 31.18 117.986 30.736C118.514 30.292 118.778 29.674 118.778 28.882C118.778 28.078 118.514 27.46 117.986 27.028C117.47 26.596 116.696 26.38 115.664 26.38H111.884L112.928 25.228V32.518ZM128.728 37V24.4H130.654L136.162 33.598H135.154L140.572 24.4H142.498L142.516 37H140.302L140.284 27.874H140.752L136.144 35.56H135.1L130.42 27.874H130.96V37H128.728ZM144.138 37L149.808 24.4H152.112L157.8 37H155.352L150.474 25.642H151.41L146.55 37H144.138ZM146.748 34.084L147.378 32.248H154.182L154.812 34.084H146.748ZM163.308 37.18C162.324 37.18 161.382 37.042 160.482 36.766C159.582 36.478 158.868 36.112 158.34 35.668L159.15 33.85C159.654 34.246 160.278 34.576 161.022 34.84C161.766 35.104 162.528 35.236 163.308 35.236C163.968 35.236 164.502 35.164 164.91 35.02C165.318 34.876 165.618 34.684 165.81 34.444C166.002 34.192 166.098 33.91 166.098 33.598C166.098 33.214 165.96 32.908 165.684 32.68C165.408 32.44 165.048 32.254 164.604 32.122C164.172 31.978 163.686 31.846 163.146 31.726C162.618 31.606 162.084 31.468 161.544 31.312C161.016 31.144 160.53 30.934 160.086 30.682C159.654 30.418 159.3 30.07 159.024 29.638C158.748 29.206 158.61 28.654 158.61 27.982C158.61 27.298 158.79 26.674 159.15 26.11C159.522 25.534 160.08 25.078 160.824 24.742C161.58 24.394 162.534 24.22 163.686 24.22C164.442 24.22 165.192 24.316 165.936 24.508C166.68 24.7 167.328 24.976 167.88 25.336L167.142 27.154C166.578 26.818 165.996 26.572 165.396 26.416C164.796 26.248 164.22 26.164 163.668 26.164C163.02 26.164 162.492 26.242 162.084 26.398C161.688 26.554 161.394 26.758 161.202 27.01C161.022 27.262 160.932 27.55 160.932 27.874C160.932 28.258 161.064 28.57 161.328 28.81C161.604 29.038 161.958 29.218 162.39 29.35C162.834 29.482 163.326 29.614 163.866 29.746C164.406 29.866 164.94 30.004 165.468 30.16C166.008 30.316 166.494 30.52 166.926 30.772C167.37 31.024 167.724 31.366 167.988 31.798C168.264 32.23 168.402 32.776 168.402 33.436C168.402 34.108 168.216 34.732 167.844 35.308C167.484 35.872 166.926 36.328 166.17 36.676C165.414 37.012 164.46 37.18 163.308 37.18Z" fill="#302F2F"/>
</svg>
