<svg width="179" height="64" viewBox="0 0 179 64" fill="none" xmlns="http://www.w3.org/2000/svg">
<circle cx="32" cy="32" r="32" fill="#5330C1"/>
<path d="M48.0607 33.0607C48.6464 32.4749 48.6464 31.5251 48.0607 30.9393L38.5147 21.3934C37.9289 20.8076 36.9792 20.8076 36.3934 21.3934C35.8076 21.9792 35.8076 22.9289 36.3934 23.5147L44.8787 32L36.3934 40.4853C35.8076 41.0711 35.8076 42.0208 36.3934 42.6066C36.9792 43.1924 37.9289 43.1924 38.5147 42.6066L48.0607 33.0607ZM13 33.5H47V30.5H13V33.5Z" fill="#FFFBFB"/>
<path d="M85.2739 39L79.1539 25H81.9739L87.4339 37.66H85.8139L91.3339 25H93.9339L87.8339 39H85.2739ZM97.8113 30.82H104.771V32.96H97.8113V30.82ZM98.0113 36.82H105.911V39H95.4113V25H105.631V27.18H98.0113V36.82ZM108.81 39V25H114.57C115.81 25 116.87 25.2 117.75 25.6C118.643 26 119.33 26.5733 119.81 27.32C120.29 28.0667 120.53 28.9533 120.53 29.98C120.53 31.0067 120.29 31.8933 119.81 32.64C119.33 33.3733 118.643 33.94 117.75 34.34C116.87 34.7267 115.81 34.92 114.57 34.92H110.25L111.41 33.74V39H108.81ZM117.97 39L114.43 33.92H117.21L120.77 39H117.97ZM111.41 34.02L110.25 32.78H114.45C115.596 32.78 116.456 32.5333 117.03 32.04C117.616 31.5467 117.91 30.86 117.91 29.98C117.91 29.0867 117.616 28.4 117.03 27.92C116.456 27.44 115.596 27.2 114.45 27.2H110.25L111.41 25.92V34.02ZM128.966 39V25H131.106L137.226 35.22H136.106L142.126 25H144.266L144.286 39H141.826L141.806 28.86H142.326L137.206 37.4H136.046L130.846 28.86H131.446V39H128.966ZM146.087 39L152.388 25H154.948L161.268 39H158.548L153.128 26.38H154.168L148.768 39H146.087ZM148.988 35.76L149.688 33.72H157.248L157.947 35.76H148.988ZM167.388 39.2C166.295 39.2 165.248 39.0467 164.248 38.74C163.248 38.42 162.455 38.0133 161.868 37.52L162.768 35.5C163.328 35.94 164.021 36.3067 164.848 36.6C165.675 36.8933 166.521 37.04 167.388 37.04C168.121 37.04 168.715 36.96 169.168 36.8C169.621 36.64 169.955 36.4267 170.168 36.16C170.381 35.88 170.488 35.5667 170.488 35.22C170.488 34.7933 170.335 34.4533 170.028 34.2C169.721 33.9333 169.321 33.7267 168.828 33.58C168.348 33.42 167.808 33.2733 167.208 33.14C166.621 33.0067 166.028 32.8533 165.428 32.68C164.841 32.4933 164.301 32.26 163.808 31.98C163.328 31.6867 162.935 31.3 162.628 30.82C162.321 30.34 162.168 29.7267 162.168 28.98C162.168 28.22 162.368 27.5267 162.768 26.9C163.181 26.26 163.801 25.7533 164.628 25.38C165.468 24.9933 166.528 24.8 167.808 24.8C168.648 24.8 169.481 24.9067 170.308 25.12C171.135 25.3333 171.855 25.64 172.468 26.04L171.648 28.06C171.021 27.6867 170.375 27.4133 169.708 27.24C169.041 27.0533 168.401 26.96 167.788 26.96C167.068 26.96 166.481 27.0467 166.028 27.22C165.588 27.3933 165.261 27.62 165.048 27.9C164.848 28.18 164.748 28.5 164.748 28.86C164.748 29.2867 164.895 29.6333 165.188 29.9C165.495 30.1533 165.888 30.3533 166.368 30.5C166.861 30.6467 167.408 30.7933 168.008 30.94C168.608 31.0733 169.201 31.2267 169.788 31.4C170.388 31.5733 170.928 31.8 171.408 32.08C171.901 32.36 172.295 32.74 172.588 33.22C172.895 33.7 173.048 34.3067 173.048 35.04C173.048 35.7867 172.841 36.48 172.428 37.12C172.028 37.7467 171.408 38.2533 170.568 38.64C169.728 39.0133 168.668 39.2 167.388 39.2Z" fill="white"/>
</svg>
