<svg width="179" height="64" viewBox="0 0 179 64" fill="none" xmlns="http://www.w3.org/2000/svg">
<circle cx="32" cy="32" r="32" fill="#5330C1"/>
<path d="M48.0607 33.0607C48.6464 32.4749 48.6464 31.5251 48.0607 30.9393L38.5147 21.3934C37.9289 20.8076 36.9792 20.8076 36.3934 21.3934C35.8076 21.9792 35.8076 22.9289 36.3934 23.5147L44.8787 32L36.3934 40.4853C35.8076 41.0711 35.8076 42.0208 36.3934 42.6066C36.9792 43.1924 37.9289 43.1924 38.5147 42.6066L48.0607 33.0607ZM13 33.5H47V30.5H13V33.5Z" fill="#FFFBFB"/>
<path d="M77.6266 34.92V30.62C77.6266 28.58 78.6466 27.56 80.6866 27.56H84.5466L85.4666 28.24V29.26H80.7466C79.9599 29.26 79.5666 29.6467 79.5666 30.42V35.12C79.5666 35.9067 79.9599 36.3 80.7466 36.3H85.4666V37.32L84.5466 38H80.6866C78.6466 38 77.6266 36.9733 77.6266 34.92ZM87.7828 34.92V30.62C87.7828 28.58 88.8028 27.56 90.8428 27.56H93.6428C95.6828 27.56 96.7028 28.58 96.7028 30.62V34.92C96.7028 36.9733 95.6828 38 93.6428 38H90.8428C88.8028 38 87.7828 36.9733 87.7828 34.92ZM89.7228 35.12C89.7228 35.9067 90.1161 36.3 90.9028 36.3H93.6028C94.3761 36.3 94.7628 35.9067 94.7628 35.12V30.42C94.7628 29.6467 94.3761 29.26 93.6028 29.26H90.9028C90.1161 29.26 89.7228 29.6467 89.7228 30.42V35.12ZM99.6616 38V27.56H105.322C107.362 27.56 108.382 28.58 108.382 30.62V38H106.442V30.42C106.442 29.6467 106.055 29.26 105.282 29.26H101.602V38H99.6616ZM111.259 34.92V30.62C111.259 28.58 112.279 27.56 114.319 27.56H117.119C119.159 27.56 120.179 28.58 120.179 30.62V34.92C120.179 36.9733 119.159 38 117.119 38H114.319C112.279 38 111.259 36.9733 111.259 34.92ZM113.199 35.12C113.199 35.9067 113.593 36.3 114.379 36.3H117.079C117.853 36.3 118.239 35.9067 118.239 35.12V30.42C118.239 29.6467 117.853 29.26 117.079 29.26H114.379C113.593 29.26 113.199 29.6467 113.199 30.42V35.12ZM122.978 34.92V30.62C122.978 28.58 123.998 27.56 126.038 27.56H129.898L130.818 28.24V29.26H126.098C125.311 29.26 124.918 29.6467 124.918 30.42V35.12C124.918 35.9067 125.311 36.3 126.098 36.3H130.818V37.32L129.898 38H126.038C123.998 38 122.978 36.9733 122.978 34.92ZM133.134 34.92V30.62C133.134 28.58 134.154 27.56 136.194 27.56H138.794C140.834 27.56 141.854 28.58 141.854 30.62V33.5H135.074V35.12C135.074 35.9067 135.468 36.3 136.254 36.3H141.454V37.32L140.554 38H136.194C134.154 38 133.134 36.9733 133.134 34.92ZM135.074 31.98H139.914V30.42C139.914 29.6467 139.528 29.26 138.754 29.26H136.254C135.468 29.26 135.074 29.6467 135.074 30.42V31.98ZM144.818 38V27.56H150.478C152.518 27.56 153.538 28.58 153.538 30.62V38H151.598V30.42C151.598 29.6467 151.211 29.26 150.438 29.26H146.758V38H144.818ZM156.416 34.92V30.62C156.416 28.58 157.436 27.56 159.476 27.56H162.276C164.316 27.56 165.336 28.58 165.336 30.62V34.92C165.336 36.9733 164.316 38 162.276 38H159.476C157.436 38 156.416 36.9733 156.416 34.92ZM158.356 35.12C158.356 35.9067 158.749 36.3 159.536 36.3H162.236C163.009 36.3 163.396 35.9067 163.396 35.12V30.42C163.396 29.6467 163.009 29.26 162.236 29.26H159.536C158.749 29.26 158.356 29.6467 158.356 30.42V35.12ZM167.894 37.32V36.3H172.514C173.301 36.3 173.694 35.9 173.694 35.1C173.694 34.2733 173.374 33.8067 172.734 33.7L170.434 33.32C168.741 33.0267 167.894 32.0933 167.894 30.52C167.894 28.5467 168.921 27.56 170.974 27.56H174.234L175.154 28.24V29.26H171.014C170.214 29.26 169.814 29.66 169.814 30.46C169.814 31.2067 170.148 31.64 170.814 31.76L173.134 32.14C174.801 32.42 175.634 33.38 175.634 35.02C175.634 37.0067 174.601 38 172.534 38H168.814L167.894 37.32Z" fill="black"/>
</svg>
