<svg width="121" height="155" viewBox="0 0 121 155" fill="none" xmlns="http://www.w3.org/2000/svg">
<g clip-path="url(#clip0_490_618)">
<path d="M49.9101 155C49.5342 154.871 49.1623 154.73 48.7824 154.609C44.9748 153.402 42.4122 150.007 42.3557 145.999C42.3152 143.072 42.388 140.146 42.3072 137.22C42.291 136.622 41.9555 135.892 41.523 135.48C40.1285 134.152 39.3242 132.614 39.3202 130.681C39.3121 127.706 39.308 124.727 39.3202 121.752C39.3282 119.822 40.0154 118.107 41.6119 117.045C42.7477 116.291 42.869 115.427 42.485 114.385C41.0824 110.571 40.0598 106.526 38.0793 103.031C34.5304 96.7743 30.5046 90.7761 26.4627 84.8183C21.196 77.0562 18.5041 68.5877 18.7708 59.207C18.9285 53.7537 20.1249 48.5265 22.3682 43.5455C23.2332 41.6201 24.8055 40.8572 26.4789 41.5394C28.1684 42.2256 28.7504 43.9734 27.8814 45.9916C24.2437 54.448 23.6657 63.1022 26.685 71.7967C27.8127 75.042 29.5427 78.1218 31.3413 81.0725C33.7503 85.0282 36.5555 88.7417 39.0776 92.6289C43.6491 99.6805 47.6466 106.995 48.8309 115.56H57.3877V25.0101C53.5074 25.2604 49.902 26.2614 46.3976 27.7145C45.6256 28.0334 44.7647 28.3281 43.9482 28.3119C42.5699 28.2796 41.5432 27.1736 41.3209 25.8053C41.0986 24.4167 41.713 23.0444 43.2085 22.5559C46.9271 21.341 50.6498 20.0009 54.4734 19.2783C59.7644 18.2773 65.128 18.4993 70.3503 20.013C74.5498 21.2279 77.9249 23.4803 79.574 27.8033C79.7114 28.1666 80.5845 28.4209 81.1221 28.4371C87.6902 28.647 93.1469 33.301 94.2463 39.6947C94.2988 39.9934 94.408 40.3123 94.3433 40.5908C93.7613 43.1782 95.1679 44.6636 96.9099 46.3751C103.531 52.8859 104.024 62.9003 98.2883 69.3466C97.6577 70.057 96.9625 70.7109 96.2511 71.4334C98.1266 74.824 98.6925 78.4488 97.6092 82.2108C96.5179 85.9889 94.1129 88.7539 90.5722 90.4734C89.8123 90.8447 89.4606 91.1999 89.4687 92.1364C89.5293 97.4686 87.3871 101.582 82.6095 104.193C82.2053 104.415 81.7971 104.839 81.6435 105.259C80.54 108.278 79.477 111.31 78.4625 114.361C78.1108 115.415 78.2119 116.283 79.3638 117.033C80.924 118.046 81.6273 119.718 81.6516 121.586C81.6879 124.662 81.6839 127.742 81.6516 130.818C81.6354 132.687 80.8108 134.18 79.4608 135.464C79.0283 135.875 78.6928 136.61 78.6767 137.203C78.5918 139.876 78.6443 142.552 78.6403 145.224C78.6282 150.225 76.2798 153.345 71.4699 154.766C71.3284 154.806 71.2071 154.911 71.0778 154.984H49.898L49.9101 155ZM83.3613 92.3423C82.9733 92.314 82.6742 92.2898 82.3791 92.2696C76.7891 91.9063 72.735 89.4966 70.807 83.9384C70.3381 82.5821 69.3236 81.3631 68.3697 80.241C67.2905 78.9735 67.0278 77.363 67.9938 76.1238C69.0043 74.824 70.8636 74.4365 72.1489 75.591C73.4706 76.7777 74.5741 78.2389 75.6129 79.7001C76.1828 80.4993 76.49 81.5124 76.7891 82.4691C77.4398 84.5398 78.9232 85.5529 80.9321 85.9889C83.2401 86.4894 85.4591 86.0817 87.5811 85.1977C90.9763 83.785 92.8033 80.354 91.8494 76.814C91.4574 75.3609 90.5641 73.9845 89.6789 72.7332C88.2642 70.727 88.5148 68.8622 90.6772 67.6755C94.2584 65.7057 96.3562 62.7631 96.142 58.6378C95.9156 54.3027 93.927 50.8152 90.0346 48.6597C87.7105 47.3721 87.2901 46.5486 88.0055 43.9007C89.4768 38.4354 84.8851 33.5593 79.3194 34.6613C76.7648 35.1699 75.4027 36.8934 74.4852 39.1821C73.7455 41.0308 72.1085 41.7412 70.4715 41.0914C68.879 40.4576 68.2403 38.7664 68.9154 36.9136C69.7399 34.6451 70.9282 32.5744 72.929 31.1819C74.0406 30.4068 74.0042 29.6359 73.2928 28.8286C72.5733 28.0173 71.7528 27.101 70.7868 26.7377C68.5152 25.8901 66.1264 25.3451 63.6285 24.6307V59.9779C67.3835 60.1596 70.2169 58.8841 71.9145 55.4813C72.4076 54.4924 72.8684 53.4308 73.5879 52.6195C74.7721 51.2794 76.0494 49.9595 77.4924 48.9221C78.705 48.0502 80.3864 48.5992 81.2474 49.7738C82.1123 50.9524 82.1285 52.793 80.9442 53.6165C78.9313 55.0252 77.937 57.0959 76.8012 59.102C74.6468 62.9084 71.4173 65.1486 67.0924 65.7864C65.9566 65.9519 64.8128 66.0609 63.6042 66.2022V115.572H71.8902C72.8724 112.032 73.8182 108.613 74.7075 105.392C73.2402 104.508 71.7083 103.656 70.2613 102.688C69.651 102.276 69.1538 101.658 68.7011 101.057C67.6826 99.7048 67.8402 98.0337 69.0164 96.964C70.2128 95.8742 72.0438 95.8943 73.2281 97.1457C74.2992 98.2799 75.4148 99.2204 77.0559 99.3213C80.7219 99.5473 83.62 96.4231 83.3613 92.3544V92.3423ZM48.4024 136.901C48.4024 139.993 48.366 142.915 48.4146 145.833C48.4428 147.666 49.6352 148.913 51.446 148.925C57.4928 148.966 63.5436 148.962 69.5904 148.925C71.1506 148.917 72.4642 147.86 72.5208 146.394C72.638 143.242 72.5572 140.085 72.5572 136.901H48.4024ZM45.4397 130.677H75.5037V121.78H45.4397V130.677Z" fill="white"/>
<path d="M61.4094 0C63.0383 0.888021 63.681 2.2362 63.5517 4.097C63.4304 5.84883 63.5476 7.61276 63.5193 9.36862C63.487 11.3828 62.1976 12.7471 60.4232 12.7027C58.7054 12.6583 57.509 11.3263 57.4807 9.36862C57.4564 7.60872 57.5696 5.84479 57.4483 4.097C57.319 2.23216 57.9616 0.883984 59.5906 0H61.4054H61.4094Z" fill="white"/>
<path d="M6.26907 63.566C5.16562 63.566 4.05812 63.6145 2.95467 63.5539C1.23684 63.4651 0 62.1735 0 60.5508C0 58.9322 1.22875 57.5961 2.94659 57.5437C5.202 57.475 7.46549 57.475 9.72495 57.5437C11.4428 57.5961 12.6837 58.9241 12.6837 60.5427C12.6837 62.1614 11.4468 63.4328 9.73303 63.566C9.63198 63.5741 9.53093 63.5741 9.43393 63.5741C8.37898 63.5741 7.32403 63.5741 6.26907 63.5741C6.26907 63.5741 6.26907 63.5701 6.26907 63.566Z" fill="white"/>
<path d="M114.594 63.566C113.49 63.566 112.383 63.6145 111.279 63.5539C109.557 63.4651 108.32 62.1775 108.316 60.5549C108.308 58.9362 109.545 57.5961 111.259 57.5437C113.514 57.475 115.778 57.475 118.037 57.5437C119.755 57.5921 120.996 58.9201 121 60.5347C121.004 62.1533 119.767 63.4248 118.057 63.562C117.956 63.5701 117.855 63.5701 117.758 63.5701C116.703 63.5701 115.648 63.5701 114.594 63.5701V63.562V63.566Z" fill="white"/>
<path d="M10.978 28.7476C11.3215 28.8727 11.8712 28.9897 12.3401 29.2521C14.1792 30.2774 16.0142 31.3188 17.8129 32.4086C19.4459 33.3976 19.9309 35.1817 19.0497 36.6711C18.1928 38.1162 16.4831 38.5521 14.8501 37.656C12.9181 36.5904 11.0022 35.4925 9.12674 34.3259C7.86161 33.5388 7.3887 32.0938 7.88182 30.7819C8.37493 29.4741 9.38138 28.8243 10.9739 28.7476H10.978Z" fill="white"/>
<path d="M38.1116 16.5173C38.0186 17.8453 37.4002 18.8544 36.1553 19.3024C34.8659 19.7666 33.5402 19.5689 32.7803 18.3821C31.402 16.2307 30.1328 14.0026 28.9647 11.73C28.322 10.4747 28.9525 8.94893 30.1449 8.19411C31.2767 7.47966 33.0107 7.45948 33.7301 8.54125C35.3024 10.9106 36.6282 13.4455 38.0389 15.9239C38.1278 16.0854 38.0914 16.3155 38.1116 16.5173Z" fill="white"/>
<path d="M19.4782 86.5456C19.1589 86.9735 18.69 88.0351 17.8776 88.5961C16.1112 89.8232 14.1913 90.8323 12.2997 91.8657C10.6708 92.7537 8.9691 92.2854 8.12029 90.8162C7.27956 89.359 7.72822 87.5991 9.28437 86.6505C11.1679 85.5002 13.0717 84.374 15.024 83.3528C17.1015 82.267 19.4135 83.6394 19.4782 86.5456Z" fill="white"/>
<path d="M86.1341 19.7627C83.8221 19.5326 82.2215 17.3691 83.1511 15.4477C84.2384 13.1954 85.5359 11.0318 86.8818 8.92076C87.7145 7.61699 89.4687 7.38287 90.7783 8.15787C92.0919 8.93691 92.6861 10.5394 91.9585 11.9441C90.851 14.0794 89.6708 16.1904 88.341 18.1925C87.8762 18.8949 86.8818 19.2541 86.13 19.7667L86.1341 19.7627Z" fill="white"/>
<path d="M113.276 32.4047C112.973 32.8124 112.528 33.8376 111.748 34.3704C109.933 35.6137 107.977 36.6631 106.037 37.7126C104.485 38.5522 102.807 38.084 101.962 36.6914C101.093 35.2585 101.51 33.438 103.034 32.5056C104.957 31.3269 106.898 30.1644 108.902 29.1271C110.964 28.0614 113.284 29.5307 113.276 32.4047Z" fill="white"/>
<path d="M113.539 89.121C113.284 91.4379 111.13 93.0081 109.197 92.0676C106.95 90.9697 104.788 89.678 102.682 88.3217C101.397 87.4943 101.174 85.7021 101.954 84.4144C102.747 83.1107 104.343 82.5335 105.746 83.2681C107.876 84.3821 109.986 85.5608 111.982 86.8969C112.682 87.3651 113.029 88.3661 113.535 89.121H113.539Z" fill="white"/>
<path d="M33.1804 30.1564C34.8457 30.1887 36.123 31.5045 36.1068 33.1716C36.0947 34.8992 34.7123 36.203 32.9783 36.1303C31.3171 36.0617 30.0802 34.7216 30.1287 33.0465C30.1813 31.3835 31.507 30.1241 33.1804 30.1564Z" fill="white"/>
</g>
<defs>
<clipPath id="clip0_490_618">
<rect width="121" height="155" fill="white"/>
</clipPath>
</defs>
</svg>
