<svg width="117" height="179" viewBox="0 0 117 179" fill="none" xmlns="http://www.w3.org/2000/svg">
<g clip-path="url(#clip0_296_1774)">
<path d="M73.458 146.25C73.458 146.25 73.3058 146.25 73.2297 146.25C73.1536 146.25 73.0774 146.25 73.0013 146.224C70.134 145.541 68.3325 142.577 67.9011 137.891C67.216 130.419 67.4697 95.5664 68.2817 83.8391C68.3578 82.8766 68.6623 81.6102 69.2206 80.2171C67.1145 79.0773 65.2622 77.5322 63.7398 76.1138C61.7606 74.2901 60.1366 72.5677 58.7918 70.8453C58.6396 70.972 58.5127 71.124 58.3604 71.2506C56.1275 74.3914 53.2602 77.0256 49.9616 79.0013C50.2154 80.1411 50.2407 81.3062 50.0124 82.3447C50.0885 85.4095 50.1646 88.3477 50.2407 91.2099C50.5198 100.86 50.7736 109.953 50.2407 122.137C50.2407 122.415 50.1139 122.694 49.9109 122.896C45.8764 126.898 36.9193 132.344 29.0787 127.456C24.5621 124.644 21.4665 119.249 20.8575 113.043C20.6292 110.789 20.7306 108.51 21.2381 105.799C19.056 106.635 16.5185 106.711 14.0573 106.002C11.2915 105.191 8.65257 103.469 6.24203 100.835C1.31945 95.4905 -0.913467 88.221 0.355238 81.8128C1.52245 76.0631 5.73455 71.0227 11.1392 68.6164C9.26155 67.9578 7.40924 67.122 5.83604 65.7795C4.08523 64.3105 2.66428 62.2082 1.72544 59.7259C-0.507481 53.8496 0.405986 47.0108 4.05986 41.8943C7.25699 37.4111 12.4333 34.4982 17.9649 33.9917C16.3663 31.2815 16.5185 27.6847 17.3813 24.8732C18.2947 21.8084 19.8933 19.1995 21.974 17.3252C24.486 15.0709 27.8354 13.7791 31.1848 13.7791H31.2863C33.7983 13.7791 36.285 14.5137 38.3656 15.8308C38.3403 13.5512 38.7463 11.2716 39.5836 9.14392C40.1418 7.70016 40.8269 6.5097 41.6643 5.52187C42.8822 4.07812 44.5823 2.91298 46.866 1.95048C51.0527 0.152124 55.7215 -0.354456 60.0098 0.50673C62.3696 0.987981 64.3741 1.82384 65.8965 3.03963C68.5355 5.09128 69.9564 8.15609 71.6311 12.0314C84.0898 10.2331 97.9694 16.2867 106.444 27.3048C114.031 37.1578 117.736 50.6835 116.848 65.349C116.569 70.1615 115.858 73.9861 114.64 77.4309C111.519 86.2454 104.744 92.9829 98.1978 99.4924C97.5381 100.151 96.853 100.835 96.1932 101.493C89.0885 108.611 82.3897 116.514 81.3748 126.139C81.1971 127.785 81.1971 129.507 81.1971 131.154C81.1971 133.332 81.1971 135.586 80.8165 137.79C80.0807 142.096 77.5179 146.351 73.4073 146.351M73.3819 144.122C76.1731 144.122 78.0254 140.677 78.5836 137.435C78.9388 135.409 78.9388 133.332 78.9388 131.154C78.9388 129.431 78.9388 127.658 79.1165 125.911C80.2076 115.602 87.1854 107.319 94.5693 99.923C95.229 99.2645 95.9141 98.5806 96.5738 97.922C102.943 91.5898 109.54 85.0296 112.483 76.6963C113.625 73.4796 114.285 69.8322 114.564 65.2476C115.401 51.1141 111.874 38.1456 104.617 28.6979C96.4216 18.0597 82.948 12.31 71.0982 14.387C70.5908 14.463 70.0833 14.2097 69.8803 13.7285L69.8295 13.6271C68.1548 9.72648 66.81 6.63635 64.4756 4.81266C63.2069 3.82483 61.5322 3.11562 59.5277 2.71035C55.6962 1.95048 51.5094 2.4064 47.7287 4.02746C45.7749 4.86332 44.3539 5.82582 43.3643 6.99095C42.7046 7.77615 42.1464 8.76398 41.6643 9.97977C40.6493 12.5633 40.3448 15.3748 40.8016 18.1104C40.8777 18.5916 40.6493 19.0476 40.218 19.2755C39.7866 19.5035 39.2537 19.4275 38.9239 19.0982C36.9193 17.1732 34.1282 16.0587 31.2609 16.0334H31.1848C28.3683 16.0334 25.5517 17.1225 23.471 18.9969C21.6949 20.5926 20.3247 22.8722 19.5127 25.5318C18.6753 28.2673 18.5738 32.1933 21.0098 34.1943C21.3904 34.4982 21.5172 35.0048 21.3396 35.4607C21.162 35.9167 20.756 36.2206 20.2485 36.1953C14.5901 36.018 9.08393 38.7282 5.86142 43.2621C2.68966 47.72 1.87768 53.9002 3.80612 59.0167C4.61809 61.1443 5.81067 62.9427 7.28237 64.1585C9.46454 66.0075 12.4841 66.8434 15.1483 67.5779C15.6558 67.7046 15.9857 68.1605 15.9603 68.6924C15.9603 69.199 15.5797 69.6549 15.0722 69.7562C8.90631 71.0733 3.75537 76.2404 2.51204 82.3447C1.3702 88.0437 3.40013 94.5786 7.8406 99.4165C9.9974 101.747 12.2811 103.266 14.6409 103.95C17.3305 104.736 20.1978 104.305 22.1262 102.861C22.5068 102.583 23.0143 102.557 23.4203 102.811C23.8263 103.064 24.0039 103.545 23.9024 104.001C23.0397 107.623 22.7859 110.283 23.0651 112.917C23.6233 118.439 26.3129 123.175 30.2459 125.657C36.7163 129.685 44.4808 124.999 47.9824 121.706C48.4899 109.827 48.2362 100.886 47.9571 91.3872C47.8809 88.449 47.7794 85.4855 47.7287 82.3447C47.7287 82.2434 47.7287 82.1421 47.7541 82.0408C47.9063 81.4835 47.9317 80.8756 47.8302 80.2424C45.648 81.3316 43.3136 82.1167 40.9031 82.5727C37.782 83.1806 34.9655 83.1299 32.5296 82.446C29.5101 81.5848 27.0234 79.6852 25.7293 77.2029C24.4353 74.746 24.8666 72.7957 25.4756 71.6052C26.6174 69.3003 29.2563 67.9072 31.2102 67.5779C40.5732 66.0582 46.8913 73.6315 48.0586 75.1766C48.4899 75.7592 48.8705 76.3417 49.175 76.975C52.0677 75.1766 54.6304 72.7957 56.5843 69.9842C56.635 69.9082 56.6858 69.8575 56.7619 69.7815C56.9902 69.5789 57.244 69.3509 57.4723 69.123C56.9141 68.3124 56.432 67.4766 56.026 66.6661C54.7319 64.1585 53.92 61.4989 53.2349 58.9914C51.89 54.0522 50.6975 47.7453 53.5647 42.6542C54.9096 40.2986 57.5485 38.1456 60.4665 38.6775C62.877 39.1334 64.7801 41.2864 65.8204 44.7565C68.3578 53.2417 66.1757 62.7654 60.3904 69.3509C61.6845 71.048 63.283 72.7703 65.2876 74.594C66.6831 75.8605 68.3071 77.2536 70.1594 78.2921C72.7222 73.1756 77.6701 67.2486 83.836 66.4888C86.5003 66.1595 89.9766 66.7674 91.6766 69.4016C93.0722 71.5546 92.8438 74.6954 91.1184 77.0256C89.8243 78.7987 87.7437 80.1664 84.9779 81.0783C81.527 82.2434 77.6448 82.5727 74.5999 82.0154C73.458 81.9141 72.3416 81.6608 71.3012 81.2809C70.8445 82.4207 70.5908 83.4339 70.54 84.1431C69.6519 96.7063 69.525 131.027 70.1594 137.841C70.3624 139.918 71.0221 143.489 73.458 144.173M33.7222 69.6549C33.0371 69.6549 32.352 69.7055 31.6161 69.8322C30.4997 70.0095 28.3936 70.9467 27.5309 72.6437C26.9981 73.7075 27.0742 74.898 27.7846 76.2151C28.7996 78.1401 30.7788 79.6345 33.2147 80.3437C35.3208 80.9263 37.782 80.9769 40.5478 80.445C42.8822 79.9891 45.1405 79.2039 47.2466 78.1401C46.9928 77.6082 46.6884 77.1016 46.3077 76.595C45.3689 75.3539 40.6747 69.6802 33.7222 69.6802M72.2401 79.2799C73.0774 79.5838 73.9401 79.7612 74.8282 79.8371C74.879 79.8371 74.9044 79.8371 74.9551 79.8371C77.6701 80.369 81.1464 80.0398 84.2674 79.0013C86.6018 78.2161 88.2765 77.1269 89.3169 75.7338C90.3064 74.3914 90.7885 72.2131 89.799 70.6427C88.6571 68.8697 86.0182 68.4897 84.1152 68.743C78.8373 69.4016 74.4984 74.7967 72.2401 79.2546M59.5784 40.8558C57.9291 40.8558 56.3813 42.2996 55.5439 43.7687C53.0826 48.1252 54.0976 53.6216 55.417 58.4341C56.0768 60.8151 56.838 63.348 58.0306 65.6782C58.3351 66.2861 58.6903 66.8687 59.0709 67.4766C64.095 61.4736 65.9473 52.9884 63.689 45.4404C63.2323 43.9206 62.1666 41.3117 60.0605 40.9318C59.9083 40.9065 59.7306 40.8811 59.5784 40.8811" fill="white"/>
<path d="M62.674 178.798C62.0143 178.798 61.3546 178.798 60.6695 178.722C43.1614 177.683 40.9284 166.133 39.9896 161.219C38.188 151.873 37.6044 142.374 38.2641 132.927C38.391 131.812 39.0761 131.812 41.3344 131.762C42.5777 131.736 44.3793 131.711 46.5361 131.711C50.3168 131.711 55.5947 131.711 62.2173 131.787C73.4834 131.888 84.8764 132.04 85.0033 132.04C85.6122 132.04 86.1197 132.547 86.1197 133.155C86.1705 143.945 85.0286 155.09 82.9479 163.727C81.8315 168.362 77.6448 178.798 62.7248 178.798M40.4717 134.016C39.9388 142.932 40.5224 151.923 42.2225 160.713C43.1614 165.576 45.0898 175.555 60.8471 176.493C75.691 177.379 79.7254 167.501 80.7658 163.195C82.745 155.014 83.8614 144.527 83.8868 134.269C67.9265 134.067 45.1659 133.839 40.4717 134.016Z" fill="white"/>
<mask id="mask0_296_1774" style="mask-type:luminance" maskUnits="userSpaceOnUse" x="44" y="132" width="41" height="47">
<path d="M84.4704 132.015H44.1509V179H84.4704V132.015Z" fill="white"/>
</mask>
<g mask="url(#mask0_296_1774)">
<path d="M84.242 133.585C83.2271 130.951 79.1672 131.786 79.218 134.598C78.5329 141.969 78.4821 147.288 77.8985 152.404C77.4164 155.292 76.2492 158.002 75.2596 160.737C74.3715 162.941 69.9818 168.513 65.6428 170.413C64.0442 171.3 58.6903 172.541 55.8992 171.3C54.2498 170.844 52.8796 170.008 48.5914 167.678C45.2167 165.803 42.3494 170.692 45.6226 172.743C47.4496 173.883 49.2511 175.048 51.0273 176.289C50.799 176.137 50.5452 175.91 50.393 175.783C51.9408 177.049 53.8438 177.936 55.7723 178.468C66.6578 180.697 75.2596 174.795 80.309 165.474C82.2121 161.624 83.1509 156.457 83.4554 154.481C83.9883 151.087 83.9122 151.29 84.0644 147.516C84.0644 146.933 84.242 146.173 84.039 145.464C84.1152 143.919 84.1659 142.374 84.242 140.854C84.3181 139.03 84.3689 137.232 84.445 135.408C84.445 134.775 84.5973 134.091 84.2674 133.534" fill="white"/>
</g>
<mask id="mask1_296_1774" style="mask-type:luminance" maskUnits="userSpaceOnUse" x="68" y="83" width="43" height="52">
<path d="M110.58 83.2314H68.1041V134.016H110.58V83.2314Z" fill="white"/>
</mask>
<g mask="url(#mask1_296_1774)">
<path d="M97.6902 93.0084C91.7019 98.0995 87.7689 101.19 82.8971 106.686C80.4866 109.498 77.6954 113.55 75.4371 118.363C73.7878 122.339 72.7982 124.923 71.7833 125.961C71.7325 125.987 71.7071 126.012 71.6564 126.037C71.1489 126.189 70.6161 126.215 70.1086 126.316C69.6265 126.443 69.2712 126.671 68.9667 126.949C68.9667 127.836 69.0682 128.722 69.1444 129.583C68.0279 130.343 67.6727 132.116 68.7891 133.18C69.5503 133.991 70.6668 133.864 71.6818 133.864C73.052 133.864 74.4222 134.016 75.7924 134.016C76.5282 133.94 77.2641 133.915 77.9745 133.864C78.3552 133.965 78.7865 133.965 79.1925 133.813C79.4462 133.737 79.6492 133.661 79.8269 133.56C79.8269 133.56 79.8776 133.535 79.903 133.509C81.4508 132.598 81.2986 130.673 80.1313 129.887C80.3851 128.748 80.2075 127.506 80.3343 126.341C80.309 125.252 80.8164 124.087 80.3597 123.049C80.309 122.897 80.2328 122.77 80.1567 122.643C80.512 121.757 80.8672 120.896 81.2224 120.009C81.1717 120.11 81.1209 120.237 81.0702 120.338C81.603 118.971 84.0643 113.778 86.2211 110.587C87.8958 108.307 87.8197 108.484 88.3272 107.801C90.6109 104.938 96.2693 100.328 97.5126 99.366C99.8724 96.7824 102.258 94.2242 104.592 91.6406C105.125 91.058 105.632 90.4755 106.165 89.8929C106.495 89.4117 106.85 88.9304 107.18 88.4492C108.297 86.7015 109.413 84.9538 110.555 83.2061C106.546 86.5495 102.562 89.0824 97.6902 92.983" fill="white"/>
</g>
</g>
<defs>
<clipPath id="clip0_296_1774">
<rect width="117" height="179" fill="white"/>
</clipPath>
</defs>
</svg>
