<svg width="131" height="131" viewBox="0 0 131 131" fill="none" xmlns="http://www.w3.org/2000/svg">
<g clip-path="url(#clip0_490_614)">
<path d="M64.2241 0C65.162 0 66.1 0 67.038 0C67.1374 0.0729196 67.2269 0.178984 67.3396 0.21213C71.6451 1.54788 73.6901 4.29894 73.7 8.77355C73.7034 10.2485 73.7 11.7235 73.7 13.2349H100.829C100.829 11.4716 100.779 9.77785 100.839 8.08744C100.955 4.9519 102.373 2.55218 105.124 1.02087C105.93 0.570098 106.851 0.334767 107.719 0C108.657 0 109.595 0 110.533 0C110.633 0.0729196 110.719 0.178984 110.828 0.215444C115.17 1.58434 117.179 4.32546 117.186 8.89619C117.186 10.3281 117.186 11.7599 117.186 13.3111C118.369 13.3111 119.423 13.2714 120.473 13.3178C124.577 13.5034 127.696 15.3695 129.678 18.9657C130.281 20.0595 130.569 21.329 131.003 22.5156V121.789C130.957 121.859 130.884 121.922 130.864 122.001C129.21 128.186 125.548 131 119.141 131C83.365 131 47.5889 131 11.8128 131C4.43814 131 0.00673473 126.595 0.00673473 119.263C0.00673473 98.5806 0.00673473 77.9013 0.00673473 57.2187C0.00673473 46.2177 -0.00983748 35.2168 0.0133636 24.2126C0.0266214 18.7569 3.63273 14.4116 8.9491 13.51C10.5201 13.2448 12.1442 13.2979 13.8246 13.2018C13.8246 11.4848 13.8048 9.82757 13.828 8.17362C13.8777 4.52764 16.0983 1.52468 19.5586 0.374541C19.8702 0.268477 20.1685 0.125952 20.4734 0C21.4114 0 22.3494 0 23.2874 0C28.67 1.939 30.1814 4.1067 30.1814 9.88723C30.1814 10.9843 30.1814 12.0814 30.1814 13.1984H57.3499C57.3499 11.4351 57.3002 9.77122 57.3598 8.11396C57.4758 4.97842 58.8812 2.56544 61.6322 1.0275C62.4376 0.576727 63.3557 0.338082 64.2241 0ZM5.12423 49.1246V50.5465C5.12423 70.1188 5.12423 89.6911 5.12423 109.263C5.12423 113.426 7.34822 115.647 11.5211 115.647C47.5093 115.647 83.4975 115.647 119.482 115.647C123.655 115.647 125.886 113.426 125.886 109.267C125.886 89.6944 125.886 70.1221 125.886 50.5498V49.1213H124.196C108.846 49.1213 93.4939 49.1213 78.1447 49.1213C77.7171 49.1213 77.2896 49.1445 76.8653 49.1047C75.4799 48.9754 74.4756 47.9015 74.4657 46.5757C74.459 45.2499 75.46 44.1594 76.8388 44.0235C77.2631 43.9838 77.6906 44.0036 78.1182 44.0036C93.5105 44.0036 108.903 44.0036 124.298 44.0036H125.853C125.853 37.0398 125.936 30.2252 125.806 23.4138C125.763 21.2096 124.384 19.4861 122.253 18.8563C120.679 18.389 118.945 18.4553 117.186 18.273C117.186 19.8242 117.195 21.0572 117.186 22.2869C117.146 27.0432 113.622 30.6826 109.042 30.6958C104.465 30.7091 100.888 27.0797 100.832 22.3465C100.815 21.0804 100.832 19.8109 100.832 18.5017H73.6934C73.6934 20.023 73.7332 21.4682 73.6868 22.9067C73.5443 27.0498 70.1138 30.4936 65.9708 30.6892C61.3305 30.9046 57.5057 27.3349 57.3598 22.6216C57.3168 21.2362 57.3532 19.8507 57.3532 18.4818H30.1814C30.1814 19.8043 30.1947 21.0738 30.1814 22.3399C30.1218 27.0764 26.5488 30.7091 21.9749 30.6991C17.3976 30.6892 13.8644 27.0465 13.8246 22.2968C13.8147 21.034 13.8246 19.7711 13.8246 18.4221C12.8601 18.4221 12.058 18.4221 11.2559 18.4221C7.43771 18.4354 5.13086 20.7357 5.12755 24.5573C5.12092 30.613 5.12755 36.6686 5.12755 42.7209C5.12755 43.1286 5.16401 43.5363 5.18721 44.0036H6.83117C22.1804 44.0036 37.5328 44.0036 52.882 44.0036C53.3494 44.0036 53.8233 43.9771 54.2874 44.0335C55.5899 44.1992 56.5445 45.293 56.5412 46.5658C56.5412 47.8385 55.5833 48.9257 54.2774 49.0881C53.8134 49.1445 53.3394 49.118 52.8721 49.118C37.5229 49.118 22.1704 49.118 6.82123 49.118H5.12755L5.12423 49.1246ZM125.823 119.167C123.238 120.854 120.467 120.775 117.686 120.771C82.8081 120.758 47.9336 120.758 13.0557 120.775C10.3544 120.775 7.68961 120.751 5.27007 119.253C4.68341 123.025 7.27199 125.876 11.1996 125.876C47.3999 125.879 83.597 125.879 119.797 125.876C123.692 125.876 126.038 123.36 125.823 119.164V119.167ZM25.0639 15.3463C25.0639 13.0857 25.0805 10.8252 25.0606 8.56805C25.0407 6.48321 23.7514 5.0878 21.9285 5.12757C20.1519 5.16735 18.9488 6.53624 18.9421 8.57799C18.9289 13.099 18.9289 17.6167 18.9421 22.1377C18.9488 24.1728 20.1619 25.5417 21.9351 25.5782C23.7514 25.6147 25.0374 24.2126 25.0573 22.1278C25.0772 19.8673 25.0606 17.6068 25.0606 15.3496L25.0639 15.3463ZM112.068 15.4788C112.068 13.1322 112.085 10.7888 112.061 8.4421C112.042 6.5031 110.812 5.16403 109.075 5.12426C107.299 5.08448 105.96 6.46001 105.95 8.43878C105.926 13.0427 105.926 17.6498 105.95 22.2537C105.96 24.2358 107.299 25.6113 109.072 25.5716C110.805 25.5318 112.038 24.1927 112.058 22.2537C112.081 19.9932 112.065 17.7327 112.065 15.4755L112.068 15.4788ZM68.5825 15.4159C68.5825 13.1123 68.5958 10.812 68.5792 8.50839C68.5627 6.48653 67.3264 5.12757 65.5366 5.12757C63.7633 5.12757 62.4806 6.49647 62.4707 8.50839C62.4475 13.0692 62.4475 17.6333 62.4707 22.1941C62.4806 24.2027 63.7633 25.5782 65.5366 25.5782C67.3231 25.5782 68.566 24.2159 68.5825 22.1974C68.5991 19.9369 68.5859 17.6764 68.5859 15.4192L68.5825 15.4159Z" fill="white"/>
<path d="M76.8851 105.143C75.9339 104.815 74.9329 104.586 74.038 104.142C71.4859 102.87 68.9702 101.527 66.4645 100.168C65.795 99.8036 65.2713 99.7937 64.5885 100.168C62.1657 101.501 59.6931 102.747 57.257 104.05C54.9568 105.279 52.6731 105.399 50.532 103.801C48.4505 102.25 47.8241 100.118 48.3146 97.5663C48.8482 94.8086 49.2957 92.0344 49.6934 89.2535C49.763 88.7729 49.5575 88.0834 49.2195 87.7387C47.2275 85.697 45.1692 83.7149 43.1143 81.7328C41.2648 79.9496 40.5124 77.8416 41.3543 75.359C42.1928 72.8863 44.039 71.66 46.6011 71.3318C49.3885 70.9772 52.166 70.5595 54.9336 70.0789C55.4175 69.9961 56.0141 69.5751 56.2394 69.1442C57.5652 66.6219 58.8148 64.0564 60.0511 61.4877C61.1713 59.1609 62.9611 57.8251 65.5663 57.8417C68.1184 57.8583 69.8684 59.194 70.9688 61.4678C72.2084 64.0332 73.4547 66.5987 74.7804 69.121C75.0058 69.5552 75.5958 69.9861 76.0731 70.069C78.9666 70.5595 81.88 70.9407 84.7867 71.3782C87.1831 71.7395 88.8801 73.0255 89.6722 75.3358C90.4677 77.6526 89.9009 79.7242 88.1973 81.4378C86.0959 83.5558 83.9117 85.5876 81.8269 87.7188C81.4889 88.0636 81.2668 88.753 81.3397 89.2303C81.7739 92.1769 82.3175 95.1069 82.8047 98.0469C83.4179 101.743 80.6669 104.978 76.8851 105.14V105.143ZM53.2664 98.975C53.2565 99.7903 53.7868 100.059 54.7612 99.555C57.7111 98.0303 60.6742 96.5289 63.5743 94.9114C64.9631 94.1391 66.1728 94.1888 67.5351 94.9412C70.3656 96.5056 73.2425 97.9906 76.1228 99.4688C76.4973 99.6611 76.9879 99.6312 77.4254 99.7042C77.5016 99.2368 77.7005 98.7463 77.6309 98.3021C77.1105 95.0207 76.5769 91.7427 75.9604 88.4812C75.7019 87.1123 76.0731 86.1047 77.0575 85.1667C79.4339 82.9028 81.7739 80.5992 84.0973 78.2824C84.4288 77.9509 84.6011 77.4604 84.8464 77.0461C84.3824 76.8141 83.9416 76.4461 83.4543 76.3699C80.2559 75.8661 77.0541 75.3888 73.8458 74.9778C72.4504 74.7988 71.4991 74.1989 70.886 72.9029C69.4806 69.9397 68.019 67.0064 66.5308 64.0863C66.3054 63.6454 65.8348 63.3306 65.4768 62.956C65.152 63.314 64.7311 63.6256 64.5189 64.0399C63.0374 66.9633 61.5624 69.8933 60.1637 72.8565C59.5539 74.1492 58.6325 74.7889 57.2305 74.9712C53.9359 75.4021 50.6513 75.8959 47.37 76.4097C46.959 76.4727 46.3657 76.7279 46.2696 77.0262C46.1735 77.3212 46.5215 77.8681 46.8165 78.1631C48.9278 80.2711 50.9993 82.4322 53.2399 84.3944C54.907 85.8561 55.4274 87.3907 54.917 89.5783C54.2044 92.6409 53.81 95.7798 53.2664 98.975Z" fill="white"/>
<path d="M68.0521 46.6022C68.0289 48.0109 66.8026 49.1709 65.4006 49.1146C64.0416 49.0582 62.9346 47.8849 62.9545 46.5259C62.9744 45.1173 64.2007 43.9572 65.6027 44.0169C66.9617 44.0732 68.072 45.2465 68.0488 46.6022H68.0521Z" fill="white"/>
</g>
<defs>
<clipPath id="clip0_490_614">
<rect width="131" height="131" fill="white"/>
</clipPath>
</defs>
</svg>
