<svg width="175" height="237" viewBox="0 0 175 237" fill="none" xmlns="http://www.w3.org/2000/svg">
<g id="Icono eventos" clip-path="url(#clip0_296_1773)">
<path id="Vector" d="M67.2021 111.528C63.2252 117.139 59.2564 122.726 55.3461 128.304C57.0072 127.122 58.2416 126.661 59.2723 126.661C62.7962 121.678 66.3201 116.696 69.8521 111.688C68.9546 111.621 68.0824 111.562 67.2102 111.503" fill="white"/>
<path id="Vector_2" d="M92.3865 157.758L106.286 142.248C106.05 141.425 105.796 140.569 105.542 139.712L93.0721 153.634C93.3693 154.615 93.2094 155.892 92.3784 157.784" fill="white"/>
<path id="Vector_3" d="M90.4769 156.508L85.8658 161.667C74.1512 152.366 56.3641 137.957 53.5178 134.855C54.6871 133.211 55.8311 131.559 56.9832 129.882C56.5927 130.144 56.1527 130.473 55.6552 130.894C54.0708 132.183 52.5289 133.514 51.0122 134.852C50.9722 135.67 51.8693 137.037 68.2861 150.424C76.6682 157.27 85.1996 163.999 85.2592 164.073C85.5218 164.296 85.8661 164.351 86.1921 164.29C87.3986 162.271 88.5798 160.243 89.6761 158.133C90.0201 157.496 90.2813 156.944 90.4598 156.475" fill="white"/>
<path id="Vector_4" d="M114.836 49.7482C114.54 49.5424 114.227 49.3033 113.931 49.0975C113.592 48.8504 113.412 48.4601 113.465 48.0345C113.496 47.8508 113.586 47.6583 113.693 47.499C97.5265 69.3644 82.8888 89.5076 68.7588 109.371C69.6058 109.422 70.4952 109.515 71.3927 109.582C85.095 90.3554 99.2797 70.8414 114.869 49.7312" fill="white"/>
<path id="Vector_5" d="M158.113 84.0591C157.762 84.1122 157.4 84.0236 157.138 83.8008C156.815 83.5035 156.485 83.2313 156.163 82.934C156.197 83.0004 156.232 83.0668 156.241 83.125L107.286 137.755C107.548 138.586 107.835 139.425 108.071 140.249L158.407 84.0982C158.407 84.0982 158.539 83.947 158.563 83.8718C158.488 83.9308 158.389 83.9817 158.322 84.0156C158.255 84.0495 158.197 84.0584 158.138 84.0672" fill="white"/>
<path id="Vector_6" d="M115.033 49.4799C115.033 49.4799 114.893 49.6562 114.836 49.7484C127.357 58.5344 141.231 69.6927 156.163 82.9343C155.162 80.5921 153.735 78.4454 152.159 76.4167C140.755 66.4957 129.988 57.8862 120.001 50.6621C118.337 50.2932 116.648 49.9161 115.033 49.4799Z" fill="white"/>
<path id="Vector_7" d="M51.2219 134.2C52.6051 132.237 53.9629 130.267 55.338 128.329C54.9808 128.574 54.6154 128.844 54.234 129.164C44.4363 137.027 36.2 146.444 29.5912 154.004C26.6833 157.331 24.0973 160.263 21.946 162.449C21.8479 161.974 21.8406 161.391 21.8181 160.941C21.1783 130.71 28.895 121.957 30.452 120.493C32.3238 118.742 37.6774 114.653 48.1935 112.61C53.2507 111.608 59.5377 111.111 67.194 111.553C67.7045 110.831 68.215 110.11 68.7255 109.389C43.2285 107.61 31.9046 116.062 28.8895 118.856C26.5374 121.06 18.8806 130.58 19.5225 160.978C19.5554 162.261 19.6048 164.186 21.1669 165.132C21.4204 165.296 21.697 165.302 21.9564 165.275C22.1654 165.231 22.3652 165.129 22.5226 164.986C24.9323 162.689 27.8735 159.346 31.2606 155.482C36.7293 149.215 43.3472 141.713 50.9709 134.894C50.987 134.844 51.0031 134.794 50.986 134.761C51.0172 134.577 51.0736 134.402 51.1553 134.234" fill="white"/>
<path id="Vector_8" d="M104.976 178.632C102.618 182.413 94.3798 191.663 68.257 196.767C67.8139 196.846 67.3374 196.942 66.861 197.037C66.4179 197.116 65.8495 197.238 65.3549 197.217C67.0658 194.668 69.4408 191.613 72.1285 188.105C78.2718 180.174 85.8819 170.279 91.6754 159.191C91.9538 158.672 92.1656 158.186 92.3693 157.726L86.8078 163.935C86.6342 164.128 86.4263 164.255 86.1921 164.29C81.1111 172.729 75.2322 180.358 70.3431 186.728C67.1933 190.807 64.4803 194.307 62.714 197.115C62.4345 197.551 62.5085 198.101 62.8569 198.49C64.1053 199.804 66.0282 199.454 67.2991 199.226C67.7756 199.13 68.2187 199.051 68.6951 198.956C95.6789 193.685 104.413 183.847 106.917 179.782C111.024 173.161 114.333 161.053 108.113 140.207L106.336 142.182C111.806 161.375 108.787 172.497 105.017 178.59" fill="white"/>
<path id="Vector_9" d="M163.4 32.0188C162.105 31.0213 160.343 30.7866 158.766 31.3589C153.477 33.2556 147.845 35.1803 142.396 37.0535C132.943 40.2953 123.172 43.6565 114.174 47.1278C114.108 47.1617 114.066 47.2038 114.008 47.2126C114.282 47.0519 114.608 46.9907 114.911 47.0881C115.996 47.4371 117.139 47.6939 118.307 47.9588C126.348 44.9544 134.875 41.9957 143.169 39.1558C148.617 37.2827 154.257 35.3329 159.572 33.4443C160.456 33.1198 161.362 33.2453 162.081 33.7809C162.75 34.3003 163.104 35.1058 163.039 35.9984C162.356 44.966 160.953 54.0065 159.588 62.7549C158.673 68.6317 157.814 74.2496 157.162 79.7407C157.728 80.7528 158.244 81.832 158.635 82.954C158.731 83.2616 158.71 83.5869 158.571 83.8466C158.829 83.6526 159.001 83.376 159.022 83.0507C159.695 76.6258 160.719 70.0645 161.788 63.1026C163.144 54.2959 164.563 45.2052 165.27 36.1624C165.409 34.5189 164.711 32.966 163.416 31.9686" fill="white"/>
<path id="Vector_10" d="M117.772 107.311C113.166 108.21 108.301 107.227 104.492 104.175C101.241 101.553 99.1659 97.786 98.7188 93.5467C98.2422 88.9658 99.6181 84.4272 102.631 80.7746C108.615 73.5115 119.165 72.1442 126.19 77.7517C129.466 80.3825 131.516 84.1411 131.964 88.3804C132.44 92.9613 131.064 97.4999 128.052 101.153C125.311 104.478 121.634 106.56 117.772 107.311ZM113.374 76.813C110.014 77.4758 106.785 79.2879 104.4 82.2014C101.759 85.3922 100.543 89.3459 100.97 93.302C101.359 96.9416 103.109 100.161 105.894 102.412C111.939 107.262 121.074 106.048 126.282 99.7257C128.924 96.5349 130.139 92.5812 129.687 88.617C129.298 84.9774 127.548 81.7581 124.763 79.5065C121.512 76.8838 117.328 76.0366 113.349 76.8048" fill="white"/>
<path id="Vector_11" d="M7.06552 203.268C6.73948 203.329 6.40328 203.249 6.1407 203.026C5.65797 202.622 5.57386 201.93 5.97845 201.452C20.0421 184.306 34.9478 167.487 50.3072 151.422C50.7289 150.977 51.4578 150.962 51.9072 151.383C52.3567 151.805 52.3742 152.53 51.9524 152.975C36.6344 168.998 21.762 185.8 7.74777 202.878C7.56616 203.097 7.33302 203.216 7.09076 203.276" fill="white"/>
<path id="Vector_12" d="M44.4746 182.727C44.1738 182.796 43.8123 182.708 43.5417 182.51C43.0509 182.131 42.9748 181.415 43.3542 180.928C48.5511 174.38 54.0258 167.922 59.6126 161.721C60.0424 161.25 60.746 161.227 61.2035 161.624C61.661 162.02 61.7037 162.753 61.3072 163.207C55.7537 169.391 50.3124 175.832 45.1396 182.304C44.958 182.523 44.7168 182.667 44.4826 182.702" fill="white"/>
<path id="Vector_13" d="M61.645 182.077C61.3442 182.146 61.008 182.066 60.7374 181.868C60.2466 181.489 60.1372 180.79 60.5166 180.303C63.6492 176.191 66.9666 172.11 70.3446 168.188C70.7492 167.709 71.4609 167.661 71.9436 168.066C72.4264 168.47 72.4772 169.178 72.0726 169.657C68.7278 173.562 65.4266 177.592 62.3353 181.663C62.1537 181.881 61.9125 182.025 61.6702 182.085" fill="white"/>
<path id="Vector_14" d="M27.8097 150.277C27.6008 150.32 27.4058 150.147 27.3866 149.947L26.147 141.329C26.1277 141.13 26.276 140.928 26.4769 140.91C26.6778 140.891 26.8807 141.04 26.9 141.239L28.1396 149.857C28.1589 150.057 28.0187 150.233 27.835 150.285" fill="white"/>
<path id="Vector_15" d="M33.0424 144.57C32.8335 144.614 32.6385 144.44 32.6112 144.265L29.6888 127.11C29.6443 126.902 29.7845 126.725 29.9935 126.682C30.2024 126.638 30.3974 126.812 30.4247 126.986L33.3471 144.142C33.3916 144.35 33.2513 144.527 33.0424 144.57Z" fill="white"/>
<path id="Vector_16" d="M39.2612 140.648C39.0522 140.691 38.8573 140.518 38.83 140.343L35.2935 120.333C35.249 120.125 35.4225 119.932 35.5982 119.906C35.8071 119.862 36.0101 120.01 36.0294 120.21L39.5659 140.22C39.6104 140.428 39.4701 140.604 39.2612 140.648Z" fill="white"/>
<path id="Vector_17" d="M44.8073 133.881C44.5984 133.924 44.4207 133.784 44.3681 133.601C43.2552 128.4 42.434 123.072 41.94 117.766C41.9207 117.566 42.069 117.365 42.2951 117.355C42.496 117.336 42.699 117.485 42.7102 117.71C43.1871 122.982 44.0163 128.285 45.1373 133.461C45.1818 133.669 45.0587 133.878 44.8578 133.897" fill="white"/>
<path id="Vector_18" d="M51.0307 128.992C50.8218 129.035 50.6521 128.87 50.5995 128.687L48.5748 116.275C48.5303 116.067 48.6957 115.899 48.8794 115.847C49.0803 115.829 49.2833 115.977 49.3107 116.152L51.3354 128.564C51.3547 128.764 51.2144 128.94 51.0307 128.992Z" fill="white"/>
<path id="Vector_19" d="M56.7129 121.714C56.7129 121.714 56.6877 121.706 56.6625 121.698C56.4616 121.716 56.2838 121.576 56.2726 121.351L55.9749 115.001C55.9556 114.802 56.1211 114.633 56.322 114.615C56.5229 114.597 56.7178 114.77 56.7118 114.962L57.0095 121.311C57.0288 121.511 56.8966 121.663 56.721 121.689" fill="white"/>
<path id="Vector_20" d="M77.5175 192.826C77.3418 192.852 77.1227 192.754 77.0701 192.571L75.1895 186.294C75.1198 186.078 75.2348 185.893 75.4518 185.825C75.6355 185.773 75.8546 185.871 75.9244 186.087L77.805 192.365C77.8495 192.573 77.7597 192.765 77.5427 192.834C77.5427 192.834 77.5427 192.834 77.5175 192.826Z" fill="white"/>
<path id="Vector_21" d="M83.5529 189.647C83.3772 189.674 83.2086 189.592 83.1227 189.426C81.8362 186.411 80.7324 183.261 79.888 180.084C79.8434 179.876 79.9584 179.691 80.1502 179.615C80.3672 179.546 80.545 179.686 80.6228 179.877C81.45 183.021 82.5367 186.138 83.806 189.12C83.8838 189.311 83.786 189.528 83.5942 189.605C83.5942 189.605 83.5357 189.614 83.5276 189.639" fill="white"/>
<path id="Vector_22" d="M89.8806 187.725C89.7049 187.752 89.5363 187.67 89.4757 187.512C87.5729 183.469 85.8275 179.282 84.2831 175.078C84.2053 174.887 84.3031 174.669 84.4948 174.592C84.6866 174.516 84.9057 174.614 84.9755 174.83C86.5028 179.001 88.2481 183.188 90.159 187.206C90.2368 187.397 90.1642 187.623 89.9977 187.708C89.9977 187.708 89.9311 187.741 89.9058 187.733" fill="white"/>
<path id="Vector_23" d="M95.9525 182.787C95.7769 182.814 95.6083 182.732 95.5476 182.574L88.9654 168.918C88.8875 168.727 88.9601 168.501 89.1266 168.416C89.3184 168.34 89.5456 168.413 89.6315 168.579L96.2137 182.235C96.2916 182.426 96.219 182.652 96.0524 182.736C96.0524 182.736 95.9858 182.77 95.9606 182.762" fill="white"/>
<path id="Vector_24" d="M101.714 177.168C101.564 177.203 101.395 177.121 101.327 176.988C98.1613 171.847 95.4109 166.369 93.2036 160.761C93.1257 160.57 93.2236 160.353 93.4153 160.276C93.6071 160.199 93.8262 160.297 93.904 160.488C96.1195 166.071 98.8355 171.483 101.984 176.591C102.095 176.765 102.047 176.999 101.873 177.108C101.839 177.125 101.781 177.134 101.748 177.151" fill="white"/>
<path id="Vector_25" d="M105.395 168.666C105.245 168.701 105.076 168.619 105.007 168.486C102.549 164.264 100.19 159.908 98.0397 155.509C97.9619 155.318 98.0345 155.092 98.201 155.007C98.4008 154.905 98.6199 155.004 98.7058 155.169C100.864 159.544 103.198 163.892 105.639 168.081C105.75 168.255 105.678 168.48 105.478 168.582C105.47 168.607 105.411 168.616 105.353 168.625" fill="white"/>
<path id="Vector_26" d="M107.254 157.254C107.104 157.288 106.935 157.207 106.841 157.066L102.965 149.98C102.853 149.806 102.926 149.58 103.126 149.478C103.326 149.377 103.553 149.45 103.631 149.641L107.507 156.726C107.619 156.9 107.546 157.126 107.346 157.228C107.313 157.245 107.28 157.262 107.246 157.279" fill="white"/>
<path id="Vector_27" d="M92.1309 157.427C91.8049 157.488 91.4434 157.4 91.1809 157.177L57.669 128.441C57.1863 128.037 57.1355 127.329 57.5401 126.85C57.9447 126.372 58.6563 126.324 59.1391 126.728L92.6509 155.464C93.1337 155.868 93.1845 156.576 92.7799 157.055C92.6063 157.248 92.3732 157.367 92.1309 157.427Z" fill="white"/>
</g>
<defs>
<clipPath id="clip0_296_1773">
<rect width="115.258" height="211.306" fill="white" transform="translate(64.6854) rotate(17.8256)"/>
</clipPath>
</defs>
</svg>
