<svg width="119" height="23" viewBox="0 0 119 23" fill="none" xmlns="http://www.w3.org/2000/svg">
<rect width="119" height="23" fill="#F5F5F5"/>
<g clip-path="url(#clip0_139_2)">
<path d="M111.623 21.6441C108.802 21.6778 107.566 19.2575 107.286 18.0958C107.195 17.7199 107.075 17.1919 106.566 17.1919C106.196 17.1919 106.05 17.5129 106.063 17.7875C106.149 18.8646 106.299 19.7263 106.33 20.8288C106.33 21.3019 106.532 21.7201 107.019 21.9524C108.556 22.7719 109.805 22.9028 111.601 22.9028C114.926 22.9028 118.914 20.6134 119 16.2922C119.069 12.4905 115.903 10.9149 113.027 9.41962C110.722 8.22844 108.647 7.1851 108.634 5.15755C108.612 2.78785 110.296 1.29254 112.678 1.27986C114.624 1.26719 116.071 2.51329 116.429 4.03395C116.567 4.6042 116.709 5.28005 117.191 5.28005C117.562 5.28005 117.764 4.97169 117.751 4.69713C117.682 3.58198 117.639 2.53863 117.605 1.40659C117.583 0.612463 114.654 0.0295431 112.742 0.00842285C108.978 0.00842285 106.226 2.7076 106.261 6.17555C106.317 9.77867 109 10.8896 111.498 12.1779C114.654 13.8084 116.192 14.48 116.192 17.2679C116.192 19.777 114.103 21.6525 111.623 21.6525M93.7538 4.30429H84.6062C83.2238 4.30429 83.4865 3.3581 82.7974 3.3581C82.2505 3.3581 82.1342 3.99593 82.1342 4.35075C82.1342 5.62642 81.9533 6.54304 81.8542 7.72155C81.8327 7.98345 82.0093 8.30447 82.371 8.30447C82.8534 8.30447 82.9783 7.78914 83.0558 7.42587C83.3271 6.30227 83.8224 5.56306 85.1489 5.56306H87.7416V17.1454C87.7416 18.4126 86.6649 18.476 85.5753 18.7083C85.2953 18.7759 85.08 18.928 85.08 19.1941C85.08 19.4602 85.291 19.6799 85.5753 19.6799C87.0482 19.6799 87.5951 19.5151 89.0336 19.5151C90.6056 19.5151 91.1353 19.6799 92.7288 19.6799C92.9958 19.6799 93.2068 19.4602 93.2068 19.1941C93.2068 18.928 92.9958 18.7759 92.7288 18.721C91.6176 18.4802 90.5711 18.4802 90.5711 17.2003V5.55039H93.56C94.8822 5.55039 94.6151 6.10374 94.7056 7.23579C94.7271 7.59906 94.7874 8.11439 95.2655 8.11439C95.6272 8.11439 95.9072 7.80603 95.9287 7.53147C95.9933 6.34451 95.9933 5.51659 96.1871 4.22826C96.2474 3.88611 96.1742 3.24828 95.6143 3.24828C94.9295 3.24828 95.119 4.29584 93.7495 4.29584M62.9605 3.6031C67.6333 3.6031 71.4146 7.14708 71.4146 11.5232C71.4146 15.8993 67.629 19.4306 62.9605 19.4306C58.292 19.4306 54.5063 15.8824 54.5063 11.5232C54.5063 7.16398 58.3006 3.6031 62.9605 3.6031ZM62.1164 4.91255C58.9294 5.27582 56.9784 8.503 57.4263 12.161C57.8957 15.8064 60.5918 18.5056 63.7917 18.1296C66.9959 17.7664 68.9469 14.5054 68.499 10.8558C68.0295 7.20199 65.3206 4.54506 62.1207 4.90833M35.7978 3.59887C40.4706 3.59887 44.2519 7.14286 44.2519 11.519C44.2519 15.8951 40.4663 19.4264 35.7978 19.4264C31.1292 19.4264 27.3393 15.8782 27.3393 11.519C27.3393 7.15975 31.1335 3.59887 35.7978 3.59887ZM34.9795 4.90833C31.7753 5.2716 29.8243 8.49878 30.2851 12.1568C30.7459 15.8022 33.442 18.5014 36.6419 18.1254C39.8461 17.7621 41.7971 14.5012 41.3363 10.8516C40.8668 7.19777 38.1708 4.54084 34.9795 4.90411M8.77286 10.577L6.85205 10.5897C6.52904 10.577 6.51612 10.5643 6.51612 10.2011V2.1458C6.51612 1.44038 7.00279 0.958836 7.73063 0.958836H8.79871C11.723 0.958836 13.6955 3.29052 13.6955 5.74892C13.6955 8.20732 11.7101 10.5812 8.77717 10.5812M4.93124 0.021095H0.495277C0.215338 0.021095 0 0.228074 0 0.502638C0 0.777201 0.223951 0.933492 0.495277 0.988404C1.18005 1.13202 1.88636 1.16581 2.59697 1.27564C3.28175 1.38547 3.59614 1.82477 3.59614 2.6738V19.7812C3.59614 20.6725 3.42818 21.4202 2.59697 21.6187C2.02418 21.7497 1.60642 21.8595 0.822591 22.0284C0.551265 22.0834 0.3187 22.2396 0.3187 22.5142C0.3187 22.7888 0.555572 23 0.822591 23C2.30412 23 3.47555 22.8352 4.90109 22.8352C6.48598 22.8352 7.71771 23 9.3069 23C9.57392 23 9.81079 22.7803 9.81079 22.5142C9.81079 22.2481 9.57392 22.096 9.3069 22.0284C8.52738 21.8595 8.10101 21.7623 7.5196 21.6314C6.68839 21.4202 6.52043 20.6387 6.52043 19.7601V11.802C6.52043 11.5063 6.52043 11.4936 6.85636 11.4936H7.48514C8.74272 11.4936 9.90123 11.4641 12.3518 16.3724C15.4871 22.6071 16.6499 22.9957 16.8566 22.9957H21.3012C21.5682 22.9957 21.7836 22.7761 21.7836 22.51C21.7836 22.2439 21.5596 22.0918 21.3012 22.0242C20.5174 21.8553 20.358 21.9059 19.7637 21.813C18.8981 21.6694 16.7877 18.4295 15.5431 15.8191C14.4319 13.5043 12.9676 11.3247 11.779 10.9699C14.6214 10.3616 16.6241 8.0637 16.6241 5.74047C16.6155 2.5851 13.5448 0.021095 9.22077 0.021095H4.89678" fill="#181818"/>
</g>
<rect x="-86.5" y="-51.5" width="1479" height="429" rx="4.5" stroke="#9747FF" stroke-dasharray="10 5"/>
<defs>
<clipPath id="clip0_139_2">
<rect width="119" height="23" fill="white"/>
</clipPath>
</defs>
</svg>
